<mxfile host="Electron" agent="Mozilla/5.0 (Windows NT 10.0; Win64; x64) AppleWebKit/537.36 (KHTML, like Gecko) draw.io/27.0.9 Chrome/134.0.6998.205 Electron/35.4.0 Safari/537.36" version="27.0.9">
  <diagram name="Страница — 1" id="wVENeQ8NFCk-cYBsU4Tp">
    <mxGraphModel dx="1501" dy="894" grid="1" gridSize="10" guides="1" tooltips="1" connect="1" arrows="1" fold="1" page="1" pageScale="1" pageWidth="827" pageHeight="1169" math="0" shadow="0">
      <root>
        <mxCell id="0" />
        <mxCell id="1" parent="0" />
        <mxCell id="SlCzGPBId2N1mzQ2yfT--2" value="Должность" style="rounded=0;whiteSpace=wrap;html=1;" vertex="1" parent="1">
          <mxGeometry x="670" y="130" width="120" height="60" as="geometry" />
        </mxCell>
        <mxCell id="SlCzGPBId2N1mzQ2yfT--3" value="Поставка" style="rounded=0;whiteSpace=wrap;html=1;" vertex="1" parent="1">
          <mxGeometry x="1130" y="700" width="120" height="60" as="geometry" />
        </mxCell>
        <mxCell id="SlCzGPBId2N1mzQ2yfT--4" value="Тестирование" style="rounded=0;whiteSpace=wrap;html=1;" vertex="1" parent="1">
          <mxGeometry x="670" y="700" width="120" height="60" as="geometry" />
        </mxCell>
        <mxCell id="SlCzGPBId2N1mzQ2yfT--5" value="Сотрудник" style="rounded=0;whiteSpace=wrap;html=1;" vertex="1" parent="1">
          <mxGeometry x="670" y="400" width="120" height="60" as="geometry" />
        </mxCell>
        <mxCell id="SlCzGPBId2N1mzQ2yfT--6" value="Транспортировка" style="rounded=0;whiteSpace=wrap;html=1;" vertex="1" parent="1">
          <mxGeometry x="190" y="400" width="120" height="60" as="geometry" />
        </mxCell>
        <mxCell id="SlCzGPBId2N1mzQ2yfT--7" value="Ракета" style="rounded=0;whiteSpace=wrap;html=1;" vertex="1" parent="1">
          <mxGeometry x="190" y="700" width="120" height="60" as="geometry" />
        </mxCell>
        <mxCell id="SlCzGPBId2N1mzQ2yfT--8" value="Модель" style="rounded=0;whiteSpace=wrap;html=1;" vertex="1" parent="1">
          <mxGeometry x="190" y="1060" width="120" height="60" as="geometry" />
        </mxCell>
        <mxCell id="SlCzGPBId2N1mzQ2yfT--9" value="Модель-Деталь" style="rounded=0;whiteSpace=wrap;html=1;" vertex="1" parent="1">
          <mxGeometry x="670" y="1060" width="120" height="60" as="geometry" />
        </mxCell>
        <mxCell id="SlCzGPBId2N1mzQ2yfT--10" value="Деталь" style="rounded=0;whiteSpace=wrap;html=1;" vertex="1" parent="1">
          <mxGeometry x="1130" y="1060" width="120" height="60" as="geometry" />
        </mxCell>
        <mxCell id="SlCzGPBId2N1mzQ2yfT--11" value="Поставщик" style="rounded=0;whiteSpace=wrap;html=1;" vertex="1" parent="1">
          <mxGeometry x="1130" y="400" width="120" height="60" as="geometry" />
        </mxCell>
        <mxCell id="SlCzGPBId2N1mzQ2yfT--13" value="" style="endArrow=ERzeroToMany;html=1;rounded=0;entryX=0.5;entryY=0;entryDx=0;entryDy=0;exitX=0.5;exitY=1;exitDx=0;exitDy=0;startArrow=ERmandOne;startFill=0;endFill=0;" edge="1" parent="1" source="SlCzGPBId2N1mzQ2yfT--2" target="SlCzGPBId2N1mzQ2yfT--5">
          <mxGeometry width="50" height="50" relative="1" as="geometry">
            <mxPoint x="1210" y="470" as="sourcePoint" />
            <mxPoint x="1260" y="420" as="targetPoint" />
          </mxGeometry>
        </mxCell>
        <mxCell id="SlCzGPBId2N1mzQ2yfT--14" value="" style="endArrow=ERmandOne;html=1;rounded=0;entryX=1;entryY=0.5;entryDx=0;entryDy=0;exitX=0;exitY=0.5;exitDx=0;exitDy=0;startArrow=ERzeroToMany;startFill=0;endFill=0;" edge="1" parent="1" source="SlCzGPBId2N1mzQ2yfT--9" target="SlCzGPBId2N1mzQ2yfT--8">
          <mxGeometry width="50" height="50" relative="1" as="geometry">
            <mxPoint x="1350" y="940" as="sourcePoint" />
            <mxPoint x="1400" y="890" as="targetPoint" />
          </mxGeometry>
        </mxCell>
        <mxCell id="SlCzGPBId2N1mzQ2yfT--15" value="" style="endArrow=ERmandOne;html=1;rounded=0;exitX=1;exitY=0.5;exitDx=0;exitDy=0;startArrow=ERzeroToMany;startFill=0;endFill=0;" edge="1" parent="1" source="SlCzGPBId2N1mzQ2yfT--9" target="SlCzGPBId2N1mzQ2yfT--10">
          <mxGeometry width="50" height="50" relative="1" as="geometry">
            <mxPoint x="1350" y="940" as="sourcePoint" />
            <mxPoint x="1400" y="890" as="targetPoint" />
          </mxGeometry>
        </mxCell>
        <mxCell id="SlCzGPBId2N1mzQ2yfT--16" value="" style="endArrow=ERmandOne;html=1;rounded=0;entryX=0.5;entryY=1;entryDx=0;entryDy=0;exitX=0.5;exitY=0;exitDx=0;exitDy=0;endFill=0;startArrow=ERzeroToMany;startFill=0;" edge="1" parent="1" source="SlCzGPBId2N1mzQ2yfT--3" target="SlCzGPBId2N1mzQ2yfT--11">
          <mxGeometry width="50" height="50" relative="1" as="geometry">
            <mxPoint x="910" y="500" as="sourcePoint" />
            <mxPoint x="960" y="450" as="targetPoint" />
          </mxGeometry>
        </mxCell>
        <mxCell id="SlCzGPBId2N1mzQ2yfT--17" value="" style="endArrow=ERzeroToMany;html=1;rounded=0;entryX=0.5;entryY=1;entryDx=0;entryDy=0;exitX=0.5;exitY=0;exitDx=0;exitDy=0;startArrow=ERmandOne;startFill=0;endFill=0;" edge="1" parent="1" source="SlCzGPBId2N1mzQ2yfT--10" target="SlCzGPBId2N1mzQ2yfT--3">
          <mxGeometry width="50" height="50" relative="1" as="geometry">
            <mxPoint x="950" y="540" as="sourcePoint" />
            <mxPoint x="1000" y="490" as="targetPoint" />
          </mxGeometry>
        </mxCell>
        <mxCell id="SlCzGPBId2N1mzQ2yfT--18" value="" style="endArrow=ERmandOne;html=1;rounded=0;entryX=0.5;entryY=1;entryDx=0;entryDy=0;exitX=0.5;exitY=0;exitDx=0;exitDy=0;endFill=0;startArrow=ERzeroToMany;startFill=0;" edge="1" parent="1" source="SlCzGPBId2N1mzQ2yfT--4" target="SlCzGPBId2N1mzQ2yfT--5">
          <mxGeometry width="50" height="50" relative="1" as="geometry">
            <mxPoint x="730" y="540" as="sourcePoint" />
            <mxPoint x="780" y="490" as="targetPoint" />
          </mxGeometry>
        </mxCell>
        <mxCell id="SlCzGPBId2N1mzQ2yfT--19" value="" style="endArrow=ERzeroToMany;html=1;rounded=0;startArrow=ERmandOne;startFill=0;endFill=0;" edge="1" parent="1" source="SlCzGPBId2N1mzQ2yfT--7" target="SlCzGPBId2N1mzQ2yfT--4">
          <mxGeometry width="50" height="50" relative="1" as="geometry">
            <mxPoint x="550" y="630" as="sourcePoint" />
            <mxPoint x="670" y="630" as="targetPoint" />
          </mxGeometry>
        </mxCell>
        <mxCell id="SlCzGPBId2N1mzQ2yfT--20" value="" style="endArrow=ERzeroToMany;html=1;rounded=0;entryX=0.5;entryY=1;entryDx=0;entryDy=0;startArrow=ERmandOne;startFill=0;endFill=0;" edge="1" parent="1" source="SlCzGPBId2N1mzQ2yfT--8" target="SlCzGPBId2N1mzQ2yfT--7">
          <mxGeometry width="50" height="50" relative="1" as="geometry">
            <mxPoint x="470" y="480" as="sourcePoint" />
            <mxPoint x="520" y="430" as="targetPoint" />
          </mxGeometry>
        </mxCell>
        <mxCell id="SlCzGPBId2N1mzQ2yfT--21" value="" style="endArrow=ERzeroToMany;html=1;rounded=0;exitX=0.5;exitY=0;exitDx=0;exitDy=0;entryX=0.5;entryY=1;entryDx=0;entryDy=0;startArrow=ERmandOne;startFill=0;endFill=0;" edge="1" parent="1" source="SlCzGPBId2N1mzQ2yfT--7" target="SlCzGPBId2N1mzQ2yfT--6">
          <mxGeometry width="50" height="50" relative="1" as="geometry">
            <mxPoint x="470" y="480" as="sourcePoint" />
            <mxPoint x="520" y="430" as="targetPoint" />
          </mxGeometry>
        </mxCell>
        <mxCell id="SlCzGPBId2N1mzQ2yfT--22" value="Код должности&lt;span style=&quot;color: rgba(0, 0, 0, 0); font-family: monospace; font-size: 0px; text-align: start; text-wrap-mode: nowrap;&quot;&gt;%3CmxGraphModel%3E%3Croot%3E%3CmxCell%20id%3D%220%22%2F%3E%3CmxCell%20id%3D%221%22%20parent%3D%220%22%2F%3E%3CmxCell%20id%3D%222%22%20value%3D%22%22%20style%3D%22rounded%3D0%3BwhiteSpace%3Dwrap%3Bhtml%3D1%3B%22%20vertex%3D%221%22%20parent%3D%221%22%3E%3CmxGeometry%20x%3D%2260%22%20y%3D%2290%22%20width%3D%22120%22%20height%3D%2260%22%20as%3D%22geometry%22%2F%3E%3C%2FmxCell%3E%3C%2Froot%3E%3C%2FmxGraphModel%3E&lt;/span&gt;" style="ellipse;whiteSpace=wrap;html=1;" vertex="1" parent="1">
          <mxGeometry x="670" y="40" width="120" height="60" as="geometry" />
        </mxCell>
        <mxCell id="SlCzGPBId2N1mzQ2yfT--23" value="Наименование должности" style="ellipse;whiteSpace=wrap;html=1;" vertex="1" parent="1">
          <mxGeometry x="820" y="130" width="120" height="60" as="geometry" />
        </mxCell>
        <mxCell id="SlCzGPBId2N1mzQ2yfT--24" value="Зарплата" style="ellipse;whiteSpace=wrap;html=1;" vertex="1" parent="1">
          <mxGeometry x="520" y="130" width="120" height="60" as="geometry" />
        </mxCell>
        <mxCell id="SlCzGPBId2N1mzQ2yfT--25" value="" style="endArrow=none;html=1;rounded=0;entryX=1;entryY=0.5;entryDx=0;entryDy=0;exitX=0;exitY=0.5;exitDx=0;exitDy=0;" edge="1" parent="1" source="SlCzGPBId2N1mzQ2yfT--2" target="SlCzGPBId2N1mzQ2yfT--24">
          <mxGeometry width="50" height="50" relative="1" as="geometry">
            <mxPoint x="710" y="410" as="sourcePoint" />
            <mxPoint x="760" y="360" as="targetPoint" />
          </mxGeometry>
        </mxCell>
        <mxCell id="SlCzGPBId2N1mzQ2yfT--26" value="" style="endArrow=none;html=1;rounded=0;entryX=0;entryY=0.5;entryDx=0;entryDy=0;exitX=1;exitY=0.5;exitDx=0;exitDy=0;" edge="1" parent="1" source="SlCzGPBId2N1mzQ2yfT--2" target="SlCzGPBId2N1mzQ2yfT--23">
          <mxGeometry width="50" height="50" relative="1" as="geometry">
            <mxPoint x="780" y="230" as="sourcePoint" />
            <mxPoint x="830" y="180" as="targetPoint" />
          </mxGeometry>
        </mxCell>
        <mxCell id="SlCzGPBId2N1mzQ2yfT--27" value="" style="endArrow=none;html=1;rounded=0;entryX=0.5;entryY=1;entryDx=0;entryDy=0;exitX=0.5;exitY=0;exitDx=0;exitDy=0;" edge="1" parent="1" source="SlCzGPBId2N1mzQ2yfT--2" target="SlCzGPBId2N1mzQ2yfT--22">
          <mxGeometry width="50" height="50" relative="1" as="geometry">
            <mxPoint x="470" y="170" as="sourcePoint" />
            <mxPoint x="520" y="120" as="targetPoint" />
          </mxGeometry>
        </mxCell>
        <mxCell id="SlCzGPBId2N1mzQ2yfT--29" value="Код сотрудника" style="ellipse;whiteSpace=wrap;html=1;" vertex="1" parent="1">
          <mxGeometry x="600" y="300" width="120" height="60" as="geometry" />
        </mxCell>
        <mxCell id="SlCzGPBId2N1mzQ2yfT--30" value="Фамилия" style="ellipse;whiteSpace=wrap;html=1;" vertex="1" parent="1">
          <mxGeometry x="740" y="300" width="120" height="60" as="geometry" />
        </mxCell>
        <mxCell id="SlCzGPBId2N1mzQ2yfT--31" value="Имя" style="ellipse;whiteSpace=wrap;html=1;" vertex="1" parent="1">
          <mxGeometry x="820" y="370" width="120" height="60" as="geometry" />
        </mxCell>
        <mxCell id="SlCzGPBId2N1mzQ2yfT--32" value="Отчество" style="ellipse;whiteSpace=wrap;html=1;" vertex="1" parent="1">
          <mxGeometry x="820" y="440" width="120" height="60" as="geometry" />
        </mxCell>
        <mxCell id="SlCzGPBId2N1mzQ2yfT--33" value="Должность" style="ellipse;whiteSpace=wrap;html=1;" vertex="1" parent="1">
          <mxGeometry x="600" y="500" width="120" height="60" as="geometry" />
        </mxCell>
        <mxCell id="SlCzGPBId2N1mzQ2yfT--34" value="Логин" style="ellipse;whiteSpace=wrap;html=1;" vertex="1" parent="1">
          <mxGeometry x="520" y="400" width="120" height="60" as="geometry" />
        </mxCell>
        <mxCell id="SlCzGPBId2N1mzQ2yfT--35" value="Пароль" style="ellipse;whiteSpace=wrap;html=1;" vertex="1" parent="1">
          <mxGeometry x="740" y="500" width="120" height="60" as="geometry" />
        </mxCell>
        <mxCell id="SlCzGPBId2N1mzQ2yfT--36" value="" style="endArrow=none;html=1;rounded=0;entryX=0.5;entryY=1;entryDx=0;entryDy=0;" edge="1" parent="1" source="SlCzGPBId2N1mzQ2yfT--5" target="SlCzGPBId2N1mzQ2yfT--30">
          <mxGeometry width="50" height="50" relative="1" as="geometry">
            <mxPoint x="730" y="410" as="sourcePoint" />
            <mxPoint x="780" y="360" as="targetPoint" />
          </mxGeometry>
        </mxCell>
        <mxCell id="SlCzGPBId2N1mzQ2yfT--37" value="" style="endArrow=none;html=1;rounded=0;entryX=0.5;entryY=1;entryDx=0;entryDy=0;" edge="1" parent="1" source="SlCzGPBId2N1mzQ2yfT--5" target="SlCzGPBId2N1mzQ2yfT--29">
          <mxGeometry width="50" height="50" relative="1" as="geometry">
            <mxPoint x="530" y="390" as="sourcePoint" />
            <mxPoint x="580" y="340" as="targetPoint" />
          </mxGeometry>
        </mxCell>
        <mxCell id="SlCzGPBId2N1mzQ2yfT--38" value="" style="endArrow=none;html=1;rounded=0;entryX=1;entryY=0.5;entryDx=0;entryDy=0;exitX=0;exitY=0.5;exitDx=0;exitDy=0;" edge="1" parent="1" source="SlCzGPBId2N1mzQ2yfT--5" target="SlCzGPBId2N1mzQ2yfT--34">
          <mxGeometry width="50" height="50" relative="1" as="geometry">
            <mxPoint x="490" y="540" as="sourcePoint" />
            <mxPoint x="540" y="490" as="targetPoint" />
          </mxGeometry>
        </mxCell>
        <mxCell id="SlCzGPBId2N1mzQ2yfT--39" value="" style="endArrow=none;html=1;rounded=0;entryX=0.5;entryY=0;entryDx=0;entryDy=0;" edge="1" parent="1" source="SlCzGPBId2N1mzQ2yfT--5" target="SlCzGPBId2N1mzQ2yfT--33">
          <mxGeometry width="50" height="50" relative="1" as="geometry">
            <mxPoint x="550" y="550" as="sourcePoint" />
            <mxPoint x="600" y="500" as="targetPoint" />
          </mxGeometry>
        </mxCell>
        <mxCell id="SlCzGPBId2N1mzQ2yfT--40" value="" style="endArrow=none;html=1;rounded=0;entryX=0;entryY=0.5;entryDx=0;entryDy=0;" edge="1" parent="1" source="SlCzGPBId2N1mzQ2yfT--5" target="SlCzGPBId2N1mzQ2yfT--31">
          <mxGeometry width="50" height="50" relative="1" as="geometry">
            <mxPoint x="1000" y="540" as="sourcePoint" />
            <mxPoint x="1050" y="490" as="targetPoint" />
          </mxGeometry>
        </mxCell>
        <mxCell id="SlCzGPBId2N1mzQ2yfT--41" value="" style="endArrow=none;html=1;rounded=0;entryX=0.5;entryY=0;entryDx=0;entryDy=0;" edge="1" parent="1" source="SlCzGPBId2N1mzQ2yfT--5" target="SlCzGPBId2N1mzQ2yfT--35">
          <mxGeometry width="50" height="50" relative="1" as="geometry">
            <mxPoint x="910" y="590" as="sourcePoint" />
            <mxPoint x="960" y="540" as="targetPoint" />
          </mxGeometry>
        </mxCell>
        <mxCell id="SlCzGPBId2N1mzQ2yfT--42" value="" style="endArrow=none;html=1;rounded=0;entryX=0;entryY=0.5;entryDx=0;entryDy=0;exitX=1;exitY=0.75;exitDx=0;exitDy=0;" edge="1" parent="1" source="SlCzGPBId2N1mzQ2yfT--5" target="SlCzGPBId2N1mzQ2yfT--32">
          <mxGeometry width="50" height="50" relative="1" as="geometry">
            <mxPoint x="1020" y="630" as="sourcePoint" />
            <mxPoint x="1070" y="580" as="targetPoint" />
          </mxGeometry>
        </mxCell>
        <mxCell id="SlCzGPBId2N1mzQ2yfT--43" value="Код транспортировки" style="ellipse;whiteSpace=wrap;html=1;" vertex="1" parent="1">
          <mxGeometry x="270" y="310" width="120" height="60" as="geometry" />
        </mxCell>
        <mxCell id="SlCzGPBId2N1mzQ2yfT--46" value="Ракета" style="ellipse;whiteSpace=wrap;html=1;" vertex="1" parent="1">
          <mxGeometry x="340" y="400" width="120" height="60" as="geometry" />
        </mxCell>
        <mxCell id="SlCzGPBId2N1mzQ2yfT--47" value="Дата отправки" style="ellipse;whiteSpace=wrap;html=1;" vertex="1" parent="1">
          <mxGeometry x="110" y="310" width="120" height="60" as="geometry" />
        </mxCell>
        <mxCell id="SlCzGPBId2N1mzQ2yfT--48" value="Статус" style="ellipse;whiteSpace=wrap;html=1;" vertex="1" parent="1">
          <mxGeometry x="40" y="400" width="120" height="60" as="geometry" />
        </mxCell>
        <mxCell id="SlCzGPBId2N1mzQ2yfT--49" value="" style="endArrow=none;html=1;rounded=0;entryX=0.5;entryY=1;entryDx=0;entryDy=0;exitX=0.25;exitY=0;exitDx=0;exitDy=0;" edge="1" parent="1" source="SlCzGPBId2N1mzQ2yfT--6" target="SlCzGPBId2N1mzQ2yfT--47">
          <mxGeometry width="50" height="50" relative="1" as="geometry">
            <mxPoint x="160" y="280" as="sourcePoint" />
            <mxPoint x="210" y="230" as="targetPoint" />
          </mxGeometry>
        </mxCell>
        <mxCell id="SlCzGPBId2N1mzQ2yfT--50" value="" style="endArrow=none;html=1;rounded=0;entryX=0.5;entryY=1;entryDx=0;entryDy=0;exitX=0.75;exitY=0;exitDx=0;exitDy=0;" edge="1" parent="1" source="SlCzGPBId2N1mzQ2yfT--6" target="SlCzGPBId2N1mzQ2yfT--43">
          <mxGeometry width="50" height="50" relative="1" as="geometry">
            <mxPoint x="240" y="240" as="sourcePoint" />
            <mxPoint x="290" y="190" as="targetPoint" />
          </mxGeometry>
        </mxCell>
        <mxCell id="SlCzGPBId2N1mzQ2yfT--51" value="" style="endArrow=none;html=1;rounded=0;entryX=0;entryY=0.5;entryDx=0;entryDy=0;exitX=1;exitY=0.5;exitDx=0;exitDy=0;" edge="1" parent="1" source="SlCzGPBId2N1mzQ2yfT--6" target="SlCzGPBId2N1mzQ2yfT--46">
          <mxGeometry width="50" height="50" relative="1" as="geometry">
            <mxPoint x="290" y="210" as="sourcePoint" />
            <mxPoint x="340" y="160" as="targetPoint" />
          </mxGeometry>
        </mxCell>
        <mxCell id="SlCzGPBId2N1mzQ2yfT--52" value="" style="endArrow=none;html=1;rounded=0;entryX=1;entryY=0.5;entryDx=0;entryDy=0;exitX=0;exitY=0.5;exitDx=0;exitDy=0;" edge="1" parent="1" source="SlCzGPBId2N1mzQ2yfT--6" target="SlCzGPBId2N1mzQ2yfT--48">
          <mxGeometry width="50" height="50" relative="1" as="geometry">
            <mxPoint x="280" y="200" as="sourcePoint" />
            <mxPoint x="330" y="150" as="targetPoint" />
          </mxGeometry>
        </mxCell>
        <mxCell id="SlCzGPBId2N1mzQ2yfT--55" value="Код поставщика" style="ellipse;whiteSpace=wrap;html=1;" vertex="1" parent="1">
          <mxGeometry x="1130" y="310" width="120" height="60" as="geometry" />
        </mxCell>
        <mxCell id="SlCzGPBId2N1mzQ2yfT--56" value="Наименование поставщика" style="ellipse;whiteSpace=wrap;html=1;" vertex="1" parent="1">
          <mxGeometry x="1270" y="350" width="120" height="60" as="geometry" />
        </mxCell>
        <mxCell id="SlCzGPBId2N1mzQ2yfT--57" value="Страна" style="ellipse;whiteSpace=wrap;html=1;" vertex="1" parent="1">
          <mxGeometry x="1270" y="450" width="120" height="60" as="geometry" />
        </mxCell>
        <mxCell id="SlCzGPBId2N1mzQ2yfT--58" value="Email" style="ellipse;whiteSpace=wrap;html=1;" vertex="1" parent="1">
          <mxGeometry x="990" y="350" width="120" height="60" as="geometry" />
        </mxCell>
        <mxCell id="SlCzGPBId2N1mzQ2yfT--59" value="Номер телефона" style="ellipse;whiteSpace=wrap;html=1;" vertex="1" parent="1">
          <mxGeometry x="990" y="450" width="120" height="60" as="geometry" />
        </mxCell>
        <mxCell id="SlCzGPBId2N1mzQ2yfT--60" value="" style="endArrow=none;html=1;rounded=0;entryX=0.5;entryY=1;entryDx=0;entryDy=0;exitX=0.5;exitY=0;exitDx=0;exitDy=0;" edge="1" parent="1" source="SlCzGPBId2N1mzQ2yfT--11" target="SlCzGPBId2N1mzQ2yfT--55">
          <mxGeometry width="50" height="50" relative="1" as="geometry">
            <mxPoint x="1130" y="330" as="sourcePoint" />
            <mxPoint x="1180" y="280" as="targetPoint" />
          </mxGeometry>
        </mxCell>
        <mxCell id="SlCzGPBId2N1mzQ2yfT--61" value="" style="endArrow=none;html=1;rounded=0;entryX=1;entryY=1;entryDx=0;entryDy=0;" edge="1" parent="1" source="SlCzGPBId2N1mzQ2yfT--11" target="SlCzGPBId2N1mzQ2yfT--58">
          <mxGeometry width="50" height="50" relative="1" as="geometry">
            <mxPoint x="1100" y="280" as="sourcePoint" />
            <mxPoint x="1150" y="230" as="targetPoint" />
          </mxGeometry>
        </mxCell>
        <mxCell id="SlCzGPBId2N1mzQ2yfT--62" value="" style="endArrow=none;html=1;rounded=0;entryX=1;entryY=0;entryDx=0;entryDy=0;exitX=0;exitY=0.75;exitDx=0;exitDy=0;" edge="1" parent="1" source="SlCzGPBId2N1mzQ2yfT--11" target="SlCzGPBId2N1mzQ2yfT--59">
          <mxGeometry width="50" height="50" relative="1" as="geometry">
            <mxPoint x="1150" y="220" as="sourcePoint" />
            <mxPoint x="1200" y="170" as="targetPoint" />
          </mxGeometry>
        </mxCell>
        <mxCell id="SlCzGPBId2N1mzQ2yfT--63" value="" style="endArrow=none;html=1;rounded=0;entryX=0;entryY=1;entryDx=0;entryDy=0;exitX=1;exitY=0.25;exitDx=0;exitDy=0;" edge="1" parent="1" source="SlCzGPBId2N1mzQ2yfT--11" target="SlCzGPBId2N1mzQ2yfT--56">
          <mxGeometry width="50" height="50" relative="1" as="geometry">
            <mxPoint x="1240" y="290" as="sourcePoint" />
            <mxPoint x="1290" y="240" as="targetPoint" />
          </mxGeometry>
        </mxCell>
        <mxCell id="SlCzGPBId2N1mzQ2yfT--64" value="" style="endArrow=none;html=1;rounded=0;entryX=0;entryY=0;entryDx=0;entryDy=0;exitX=1;exitY=0.75;exitDx=0;exitDy=0;" edge="1" parent="1" source="SlCzGPBId2N1mzQ2yfT--11" target="SlCzGPBId2N1mzQ2yfT--57">
          <mxGeometry width="50" height="50" relative="1" as="geometry">
            <mxPoint x="1230" y="570" as="sourcePoint" />
            <mxPoint x="1280" y="520" as="targetPoint" />
          </mxGeometry>
        </mxCell>
        <mxCell id="SlCzGPBId2N1mzQ2yfT--65" value="Номер поставки" style="ellipse;whiteSpace=wrap;html=1;" vertex="1" parent="1">
          <mxGeometry x="1210" y="610" width="120" height="60" as="geometry" />
        </mxCell>
        <mxCell id="SlCzGPBId2N1mzQ2yfT--66" value="Деталь" style="ellipse;whiteSpace=wrap;html=1;" vertex="1" parent="1">
          <mxGeometry x="1210" y="790" width="120" height="60" as="geometry" />
        </mxCell>
        <mxCell id="SlCzGPBId2N1mzQ2yfT--67" value="Поставщик" style="ellipse;whiteSpace=wrap;html=1;" vertex="1" parent="1">
          <mxGeometry x="1280" y="700" width="120" height="60" as="geometry" />
        </mxCell>
        <mxCell id="SlCzGPBId2N1mzQ2yfT--68" value="Количество" style="ellipse;whiteSpace=wrap;html=1;" vertex="1" parent="1">
          <mxGeometry x="980" y="700" width="120" height="60" as="geometry" />
        </mxCell>
        <mxCell id="SlCzGPBId2N1mzQ2yfT--69" value="Дата оформления" style="ellipse;whiteSpace=wrap;html=1;" vertex="1" parent="1">
          <mxGeometry x="1050" y="610" width="120" height="60" as="geometry" />
        </mxCell>
        <mxCell id="SlCzGPBId2N1mzQ2yfT--70" value="Статус" style="ellipse;whiteSpace=wrap;html=1;" vertex="1" parent="1">
          <mxGeometry x="1050" y="790" width="120" height="60" as="geometry" />
        </mxCell>
        <mxCell id="SlCzGPBId2N1mzQ2yfT--71" value="" style="endArrow=none;html=1;rounded=0;entryX=1;entryY=0.5;entryDx=0;entryDy=0;" edge="1" parent="1" source="SlCzGPBId2N1mzQ2yfT--3" target="SlCzGPBId2N1mzQ2yfT--68">
          <mxGeometry width="50" height="50" relative="1" as="geometry">
            <mxPoint x="930" y="680" as="sourcePoint" />
            <mxPoint x="980" y="630" as="targetPoint" />
          </mxGeometry>
        </mxCell>
        <mxCell id="SlCzGPBId2N1mzQ2yfT--72" value="" style="endArrow=none;html=1;rounded=0;entryX=0;entryY=0.5;entryDx=0;entryDy=0;" edge="1" parent="1" source="SlCzGPBId2N1mzQ2yfT--3" target="SlCzGPBId2N1mzQ2yfT--67">
          <mxGeometry width="50" height="50" relative="1" as="geometry">
            <mxPoint x="870" y="690" as="sourcePoint" />
            <mxPoint x="920" y="640" as="targetPoint" />
          </mxGeometry>
        </mxCell>
        <mxCell id="SlCzGPBId2N1mzQ2yfT--73" value="" style="endArrow=none;html=1;rounded=0;entryX=0.5;entryY=0;entryDx=0;entryDy=0;" edge="1" parent="1" source="SlCzGPBId2N1mzQ2yfT--3" target="SlCzGPBId2N1mzQ2yfT--70">
          <mxGeometry width="50" height="50" relative="1" as="geometry">
            <mxPoint x="910" y="680" as="sourcePoint" />
            <mxPoint x="960" y="630" as="targetPoint" />
          </mxGeometry>
        </mxCell>
        <mxCell id="SlCzGPBId2N1mzQ2yfT--74" value="" style="endArrow=none;html=1;rounded=0;exitX=0.5;exitY=0;exitDx=0;exitDy=0;" edge="1" parent="1" source="SlCzGPBId2N1mzQ2yfT--66" target="SlCzGPBId2N1mzQ2yfT--3">
          <mxGeometry width="50" height="50" relative="1" as="geometry">
            <mxPoint x="950" y="650" as="sourcePoint" />
            <mxPoint x="1000" y="600" as="targetPoint" />
          </mxGeometry>
        </mxCell>
        <mxCell id="SlCzGPBId2N1mzQ2yfT--75" value="" style="endArrow=none;html=1;rounded=0;" edge="1" parent="1" source="SlCzGPBId2N1mzQ2yfT--3" target="SlCzGPBId2N1mzQ2yfT--69">
          <mxGeometry width="50" height="50" relative="1" as="geometry">
            <mxPoint x="970" y="670" as="sourcePoint" />
            <mxPoint x="1020" y="620" as="targetPoint" />
          </mxGeometry>
        </mxCell>
        <mxCell id="SlCzGPBId2N1mzQ2yfT--76" value="" style="endArrow=none;html=1;rounded=0;" edge="1" parent="1" source="SlCzGPBId2N1mzQ2yfT--3" target="SlCzGPBId2N1mzQ2yfT--65">
          <mxGeometry width="50" height="50" relative="1" as="geometry">
            <mxPoint x="1420" y="680" as="sourcePoint" />
            <mxPoint x="1470" y="630" as="targetPoint" />
          </mxGeometry>
        </mxCell>
        <mxCell id="SlCzGPBId2N1mzQ2yfT--77" value="Код ракеты&lt;span style=&quot;color: rgba(0, 0, 0, 0); font-family: monospace; font-size: 0px; text-align: start; text-wrap-mode: nowrap;&quot;&gt;%3CmxGraphModel%3E%3Croot%3E%3CmxCell%20id%3D%220%22%2F%3E%3CmxCell%20id%3D%221%22%20parent%3D%220%22%2F%3E%3CmxCell%20id%3D%222%22%20value%3D%22%D0%A1%D1%82%D1%80%D0%B0%D0%BD%D0%B0%22%20style%3D%22ellipse%3BwhiteSpace%3Dwrap%3Bhtml%3D1%3B%22%20vertex%3D%221%22%20parent%3D%221%22%3E%3CmxGeometry%20x%3D%221120%22%20y%3D%22450%22%20width%3D%22120%22%20height%3D%2260%22%20as%3D%22geometry%22%2F%3E%3C%2FmxCell%3E%3C%2Froot%3E%3C%2FmxGraphModel%3E&lt;/span&gt;" style="ellipse;whiteSpace=wrap;html=1;" vertex="1" parent="1">
          <mxGeometry x="290" y="610" width="120" height="60" as="geometry" />
        </mxCell>
        <mxCell id="SlCzGPBId2N1mzQ2yfT--78" value="Модель" style="ellipse;whiteSpace=wrap;html=1;" vertex="1" parent="1">
          <mxGeometry x="40" y="700" width="120" height="60" as="geometry" />
        </mxCell>
        <mxCell id="SlCzGPBId2N1mzQ2yfT--79" value="Статус" style="ellipse;whiteSpace=wrap;html=1;" vertex="1" parent="1">
          <mxGeometry x="110" y="610" width="120" height="60" as="geometry" />
        </mxCell>
        <mxCell id="SlCzGPBId2N1mzQ2yfT--80" value="Дата начала строительства" style="ellipse;whiteSpace=wrap;html=1;" vertex="1" parent="1">
          <mxGeometry x="290" y="790" width="120" height="60" as="geometry" />
        </mxCell>
        <mxCell id="SlCzGPBId2N1mzQ2yfT--81" value="Дата окончания строительства" style="ellipse;whiteSpace=wrap;html=1;" vertex="1" parent="1">
          <mxGeometry x="110" y="790" width="120" height="60" as="geometry" />
        </mxCell>
        <mxCell id="SlCzGPBId2N1mzQ2yfT--82" value="" style="endArrow=none;html=1;rounded=0;" edge="1" parent="1" source="SlCzGPBId2N1mzQ2yfT--7" target="SlCzGPBId2N1mzQ2yfT--77">
          <mxGeometry width="50" height="50" relative="1" as="geometry">
            <mxPoint x="-50" y="640" as="sourcePoint" />
            <mxPoint y="590" as="targetPoint" />
          </mxGeometry>
        </mxCell>
        <mxCell id="SlCzGPBId2N1mzQ2yfT--83" value="" style="endArrow=none;html=1;rounded=0;" edge="1" parent="1" source="SlCzGPBId2N1mzQ2yfT--7" target="SlCzGPBId2N1mzQ2yfT--79">
          <mxGeometry width="50" height="50" relative="1" as="geometry">
            <mxPoint x="-40" y="730" as="sourcePoint" />
            <mxPoint x="10" y="680" as="targetPoint" />
          </mxGeometry>
        </mxCell>
        <mxCell id="SlCzGPBId2N1mzQ2yfT--84" value="" style="endArrow=none;html=1;rounded=0;" edge="1" parent="1" source="SlCzGPBId2N1mzQ2yfT--7" target="SlCzGPBId2N1mzQ2yfT--78">
          <mxGeometry width="50" height="50" relative="1" as="geometry">
            <mxPoint x="70" y="780" as="sourcePoint" />
            <mxPoint x="120" y="730" as="targetPoint" />
          </mxGeometry>
        </mxCell>
        <mxCell id="SlCzGPBId2N1mzQ2yfT--85" value="" style="endArrow=none;html=1;rounded=0;" edge="1" parent="1" source="SlCzGPBId2N1mzQ2yfT--7" target="SlCzGPBId2N1mzQ2yfT--81">
          <mxGeometry width="50" height="50" relative="1" as="geometry">
            <mxPoint x="-10" y="880" as="sourcePoint" />
            <mxPoint x="40" y="830" as="targetPoint" />
          </mxGeometry>
        </mxCell>
        <mxCell id="SlCzGPBId2N1mzQ2yfT--86" value="" style="endArrow=none;html=1;rounded=0;" edge="1" parent="1" source="SlCzGPBId2N1mzQ2yfT--7" target="SlCzGPBId2N1mzQ2yfT--80">
          <mxGeometry width="50" height="50" relative="1" as="geometry">
            <mxPoint x="-50" y="870" as="sourcePoint" />
            <mxPoint y="820" as="targetPoint" />
          </mxGeometry>
        </mxCell>
        <mxCell id="SlCzGPBId2N1mzQ2yfT--87" value="Код модели" style="ellipse;whiteSpace=wrap;html=1;" vertex="1" parent="1">
          <mxGeometry x="40" y="1060" width="120" height="60" as="geometry" />
        </mxCell>
        <mxCell id="SlCzGPBId2N1mzQ2yfT--88" value="Наименование модели" style="ellipse;whiteSpace=wrap;html=1;" vertex="1" parent="1">
          <mxGeometry x="110" y="980" width="120" height="60" as="geometry" />
        </mxCell>
        <mxCell id="SlCzGPBId2N1mzQ2yfT--89" value="Класс" style="ellipse;whiteSpace=wrap;html=1;" vertex="1" parent="1">
          <mxGeometry x="110" y="1140" width="120" height="60" as="geometry" />
        </mxCell>
        <mxCell id="SlCzGPBId2N1mzQ2yfT--90" value="Вес" style="ellipse;whiteSpace=wrap;html=1;" vertex="1" parent="1">
          <mxGeometry x="270" y="1140" width="120" height="60" as="geometry" />
        </mxCell>
        <mxCell id="SlCzGPBId2N1mzQ2yfT--91" value="Максимальный радиус&amp;nbsp;" style="ellipse;whiteSpace=wrap;html=1;" vertex="1" parent="1">
          <mxGeometry x="270" y="980" width="120" height="60" as="geometry" />
        </mxCell>
        <mxCell id="SlCzGPBId2N1mzQ2yfT--92" value="" style="endArrow=none;html=1;rounded=0;" edge="1" parent="1" source="SlCzGPBId2N1mzQ2yfT--8" target="SlCzGPBId2N1mzQ2yfT--88">
          <mxGeometry width="50" height="50" relative="1" as="geometry">
            <mxPoint x="-40" y="1040" as="sourcePoint" />
            <mxPoint x="10" y="990" as="targetPoint" />
          </mxGeometry>
        </mxCell>
        <mxCell id="SlCzGPBId2N1mzQ2yfT--93" value="" style="endArrow=none;html=1;rounded=0;" edge="1" parent="1" source="SlCzGPBId2N1mzQ2yfT--8" target="SlCzGPBId2N1mzQ2yfT--91">
          <mxGeometry width="50" height="50" relative="1" as="geometry">
            <mxPoint x="-100" y="1040" as="sourcePoint" />
            <mxPoint x="-50" y="990" as="targetPoint" />
          </mxGeometry>
        </mxCell>
        <mxCell id="SlCzGPBId2N1mzQ2yfT--94" value="" style="endArrow=none;html=1;rounded=0;" edge="1" parent="1" source="SlCzGPBId2N1mzQ2yfT--8" target="SlCzGPBId2N1mzQ2yfT--87">
          <mxGeometry width="50" height="50" relative="1" as="geometry">
            <mxPoint x="-60" y="1100" as="sourcePoint" />
            <mxPoint x="-10" y="1050" as="targetPoint" />
          </mxGeometry>
        </mxCell>
        <mxCell id="SlCzGPBId2N1mzQ2yfT--95" value="" style="endArrow=none;html=1;rounded=0;" edge="1" parent="1" source="SlCzGPBId2N1mzQ2yfT--8" target="SlCzGPBId2N1mzQ2yfT--89">
          <mxGeometry width="50" height="50" relative="1" as="geometry">
            <mxPoint x="-100" y="1130" as="sourcePoint" />
            <mxPoint x="-50" y="1080" as="targetPoint" />
          </mxGeometry>
        </mxCell>
        <mxCell id="SlCzGPBId2N1mzQ2yfT--96" value="" style="endArrow=none;html=1;rounded=0;" edge="1" parent="1" source="SlCzGPBId2N1mzQ2yfT--8" target="SlCzGPBId2N1mzQ2yfT--90">
          <mxGeometry width="50" height="50" relative="1" as="geometry">
            <mxPoint x="-80" y="1140" as="sourcePoint" />
            <mxPoint x="-30" y="1090" as="targetPoint" />
          </mxGeometry>
        </mxCell>
        <mxCell id="SlCzGPBId2N1mzQ2yfT--97" value="Модель" style="ellipse;whiteSpace=wrap;html=1;" vertex="1" parent="1">
          <mxGeometry x="600" y="970" width="120" height="60" as="geometry" />
        </mxCell>
        <mxCell id="SlCzGPBId2N1mzQ2yfT--98" value="Деталь" style="ellipse;whiteSpace=wrap;html=1;" vertex="1" parent="1">
          <mxGeometry x="600" y="1150" width="120" height="60" as="geometry" />
        </mxCell>
        <mxCell id="SlCzGPBId2N1mzQ2yfT--99" value="Количество" style="ellipse;whiteSpace=wrap;html=1;" vertex="1" parent="1">
          <mxGeometry x="740" y="970" width="120" height="60" as="geometry" />
        </mxCell>
        <mxCell id="SlCzGPBId2N1mzQ2yfT--100" value="Назначение" style="ellipse;whiteSpace=wrap;html=1;" vertex="1" parent="1">
          <mxGeometry x="740" y="1150" width="120" height="60" as="geometry" />
        </mxCell>
        <mxCell id="SlCzGPBId2N1mzQ2yfT--101" value="" style="endArrow=none;html=1;rounded=0;" edge="1" parent="1" source="SlCzGPBId2N1mzQ2yfT--9" target="SlCzGPBId2N1mzQ2yfT--97">
          <mxGeometry width="50" height="50" relative="1" as="geometry">
            <mxPoint x="600" y="920" as="sourcePoint" />
            <mxPoint x="650" y="870" as="targetPoint" />
          </mxGeometry>
        </mxCell>
        <mxCell id="SlCzGPBId2N1mzQ2yfT--102" value="" style="endArrow=none;html=1;rounded=0;" edge="1" parent="1" source="SlCzGPBId2N1mzQ2yfT--9" target="SlCzGPBId2N1mzQ2yfT--99">
          <mxGeometry width="50" height="50" relative="1" as="geometry">
            <mxPoint x="760" y="900" as="sourcePoint" />
            <mxPoint x="810" y="850" as="targetPoint" />
          </mxGeometry>
        </mxCell>
        <mxCell id="SlCzGPBId2N1mzQ2yfT--103" value="" style="endArrow=none;html=1;rounded=0;" edge="1" parent="1" source="SlCzGPBId2N1mzQ2yfT--9" target="SlCzGPBId2N1mzQ2yfT--98">
          <mxGeometry width="50" height="50" relative="1" as="geometry">
            <mxPoint x="660" y="920" as="sourcePoint" />
            <mxPoint x="710" y="870" as="targetPoint" />
          </mxGeometry>
        </mxCell>
        <mxCell id="SlCzGPBId2N1mzQ2yfT--104" value="" style="endArrow=none;html=1;rounded=0;" edge="1" parent="1" source="SlCzGPBId2N1mzQ2yfT--9" target="SlCzGPBId2N1mzQ2yfT--100">
          <mxGeometry width="50" height="50" relative="1" as="geometry">
            <mxPoint x="860" y="940" as="sourcePoint" />
            <mxPoint x="910" y="890" as="targetPoint" />
          </mxGeometry>
        </mxCell>
        <mxCell id="SlCzGPBId2N1mzQ2yfT--106" value="Код детали" style="ellipse;whiteSpace=wrap;html=1;" vertex="1" parent="1">
          <mxGeometry x="1230" y="980" width="120" height="60" as="geometry" />
        </mxCell>
        <mxCell id="SlCzGPBId2N1mzQ2yfT--107" value="Наименование детали" style="ellipse;whiteSpace=wrap;html=1;" vertex="1" parent="1">
          <mxGeometry x="1130" y="1150" width="120" height="60" as="geometry" />
        </mxCell>
        <mxCell id="SlCzGPBId2N1mzQ2yfT--109" value="Количество" style="ellipse;whiteSpace=wrap;html=1;" vertex="1" parent="1">
          <mxGeometry x="1271" y="1090" width="120" height="60" as="geometry" />
        </mxCell>
        <mxCell id="SlCzGPBId2N1mzQ2yfT--110" value="" style="endArrow=none;html=1;rounded=0;" edge="1" parent="1" source="SlCzGPBId2N1mzQ2yfT--10" target="SlCzGPBId2N1mzQ2yfT--106">
          <mxGeometry width="50" height="50" relative="1" as="geometry">
            <mxPoint x="1270" y="950" as="sourcePoint" />
            <mxPoint x="1320" y="900" as="targetPoint" />
          </mxGeometry>
        </mxCell>
        <mxCell id="SlCzGPBId2N1mzQ2yfT--111" value="" style="endArrow=none;html=1;rounded=0;" edge="1" parent="1" source="SlCzGPBId2N1mzQ2yfT--10" target="SlCzGPBId2N1mzQ2yfT--109">
          <mxGeometry width="50" height="50" relative="1" as="geometry">
            <mxPoint x="1410" y="950" as="sourcePoint" />
            <mxPoint x="1460" y="900" as="targetPoint" />
          </mxGeometry>
        </mxCell>
        <mxCell id="SlCzGPBId2N1mzQ2yfT--112" value="" style="endArrow=none;html=1;rounded=0;" edge="1" parent="1" source="SlCzGPBId2N1mzQ2yfT--10" target="SlCzGPBId2N1mzQ2yfT--107">
          <mxGeometry width="50" height="50" relative="1" as="geometry">
            <mxPoint x="1130" y="1010" as="sourcePoint" />
            <mxPoint x="1180" y="960" as="targetPoint" />
          </mxGeometry>
        </mxCell>
        <mxCell id="SlCzGPBId2N1mzQ2yfT--116" value="Номер транспортировки" style="ellipse;whiteSpace=wrap;html=1;" vertex="1" parent="1">
          <mxGeometry x="770" y="610" width="120" height="60" as="geometry" />
        </mxCell>
        <mxCell id="SlCzGPBId2N1mzQ2yfT--117" value="Ракета" style="ellipse;whiteSpace=wrap;html=1;" vertex="1" parent="1">
          <mxGeometry x="790" y="780" width="120" height="60" as="geometry" />
        </mxCell>
        <mxCell id="SlCzGPBId2N1mzQ2yfT--118" value="Вид тестирования" style="ellipse;whiteSpace=wrap;html=1;" vertex="1" parent="1">
          <mxGeometry x="670" y="810" width="120" height="60" as="geometry" />
        </mxCell>
        <mxCell id="SlCzGPBId2N1mzQ2yfT--119" value="Результат тестирования" style="ellipse;whiteSpace=wrap;html=1;" vertex="1" parent="1">
          <mxGeometry x="820" y="700" width="120" height="60" as="geometry" />
        </mxCell>
        <mxCell id="SlCzGPBId2N1mzQ2yfT--120" value="Дата тестирования" style="ellipse;whiteSpace=wrap;html=1;" vertex="1" parent="1">
          <mxGeometry x="570" y="610" width="120" height="60" as="geometry" />
        </mxCell>
        <mxCell id="SlCzGPBId2N1mzQ2yfT--121" value="Сотрудник" style="ellipse;whiteSpace=wrap;html=1;" vertex="1" parent="1">
          <mxGeometry x="550" y="780" width="120" height="60" as="geometry" />
        </mxCell>
        <mxCell id="SlCzGPBId2N1mzQ2yfT--122" value="" style="endArrow=none;html=1;rounded=0;" edge="1" parent="1" source="SlCzGPBId2N1mzQ2yfT--4" target="SlCzGPBId2N1mzQ2yfT--120">
          <mxGeometry width="50" height="50" relative="1" as="geometry">
            <mxPoint x="700" y="700" as="sourcePoint" />
            <mxPoint x="650" y="670" as="targetPoint" />
          </mxGeometry>
        </mxCell>
        <mxCell id="SlCzGPBId2N1mzQ2yfT--123" value="" style="endArrow=none;html=1;rounded=0;" edge="1" parent="1" source="SlCzGPBId2N1mzQ2yfT--4" target="SlCzGPBId2N1mzQ2yfT--116">
          <mxGeometry width="50" height="50" relative="1" as="geometry">
            <mxPoint x="760" y="700" as="sourcePoint" />
            <mxPoint x="810" y="670" as="targetPoint" />
          </mxGeometry>
        </mxCell>
        <mxCell id="SlCzGPBId2N1mzQ2yfT--124" value="" style="endArrow=none;html=1;rounded=0;entryX=0;entryY=0.5;entryDx=0;entryDy=0;exitX=1;exitY=0.5;exitDx=0;exitDy=0;" edge="1" parent="1">
          <mxGeometry width="50" height="50" relative="1" as="geometry">
            <mxPoint x="790" y="730" as="sourcePoint" />
            <mxPoint x="820" y="730" as="targetPoint" />
          </mxGeometry>
        </mxCell>
        <mxCell id="SlCzGPBId2N1mzQ2yfT--125" value="" style="endArrow=none;html=1;rounded=0;entryX=1;entryY=0.5;entryDx=0;entryDy=0;exitX=0;exitY=0.5;exitDx=0;exitDy=0;" edge="1" parent="1">
          <mxGeometry width="50" height="50" relative="1" as="geometry">
            <mxPoint x="670" y="730" as="sourcePoint" />
            <mxPoint x="640" y="730" as="targetPoint" />
          </mxGeometry>
        </mxCell>
        <mxCell id="SlCzGPBId2N1mzQ2yfT--126" value="" style="endArrow=none;html=1;rounded=0;" edge="1" parent="1" source="SlCzGPBId2N1mzQ2yfT--4" target="SlCzGPBId2N1mzQ2yfT--118">
          <mxGeometry width="50" height="50" relative="1" as="geometry">
            <mxPoint x="714" y="760" as="sourcePoint" />
            <mxPoint x="692" y="799" as="targetPoint" />
          </mxGeometry>
        </mxCell>
        <mxCell id="SlCzGPBId2N1mzQ2yfT--127" value="" style="endArrow=none;html=1;rounded=0;" edge="1" parent="1" source="SlCzGPBId2N1mzQ2yfT--4" target="SlCzGPBId2N1mzQ2yfT--117">
          <mxGeometry width="50" height="50" relative="1" as="geometry">
            <mxPoint x="746" y="760" as="sourcePoint" />
            <mxPoint x="768" y="799" as="targetPoint" />
          </mxGeometry>
        </mxCell>
        <mxCell id="SlCzGPBId2N1mzQ2yfT--128" value="" style="endArrow=none;html=1;rounded=0;" edge="1" parent="1" source="SlCzGPBId2N1mzQ2yfT--4" target="SlCzGPBId2N1mzQ2yfT--121">
          <mxGeometry width="50" height="50" relative="1" as="geometry">
            <mxPoint x="480" y="940" as="sourcePoint" />
            <mxPoint x="530" y="890" as="targetPoint" />
          </mxGeometry>
        </mxCell>
      </root>
    </mxGraphModel>
  </diagram>
</mxfile>
